# xmcd
#
# Track frame offsets:
#	150
#	22822
#	42622
#	53892
#	67192
#	81152
#	96137
#	107840
#	121087
#	131305
#	135655
#	147300
#	167330
#	182350
#	196075
#
# Disc length: 2809
#
# Revision: 2
# Processed by: cddbd v1.5.1PL0 Copyright (c) Steve Scherf et al.
# Submitted via: audiograbber 1.80.04
# Normalized: r1:DSETVAR1
#
DISCID=c50af70f
DTITLE=Various Artist - Blues Story #27
DYEAR=1998
DGENRE=Blues
TTITLE0=Dr John - I Know What I've Got
TTITLE1=Professor Longhair - Her Mind Is Gone
TTITLE2=Elmore James - Shake Your Moneymaker
TTITLE3=Mississipi John Hurt - Slidin' Delta
TTITLE4=Koko Taylor - Mama, He Treats your Daughter Mean
TTITLE5=Katie Webster - Whee-wee Sweet Daddy
TTITLE6=Sonny Boy Wiliamson - Bring It On Home
TTITLE7=Skip James - I'm So Glad
TTITLE8=J.B. Hutto - Combination Boogie
TTITLE9=Leadbelly - Black Betty
TTITLE10=John Lee Hooker - Walkin' The Boogie
TTITLE11=Johnny Adams - Do You Know Him
TTITLE12=C.J. Chenier - Too Much Fun
TTITLE13=Buckwheat Zydeco - Route 66
TTITLE14=Kenny Neal - Bayou Blood
EXTD=
EXTT0=
EXTT1=
EXTT2=
EXTT3=
EXTT4=
EXTT5=
EXTT6=
EXTT7=
EXTT8=
EXTT9=
EXTT10=
EXTT11=
EXTT12=
EXTT13=
EXTT14=
PLAYORDER=
